<svg xmlns="http://www.w3.org/2000/svg" viewBox="0 0 111.4 105.55"><defs><style>.cls-1{fill:none;stroke:#00a64f;stroke-miterlimit:10;stroke-width:4px;}</style></defs><g id="Layer_4" data-name="Layer 4"><path class="cls-1" d="M122.72,314.68a61.17,61.17,0,0,1,15.09,1.15c7.87,1.6,16.64,3.39,22.65,10.83,4.78,5.93,5.59,12.7,5.9,15.6a33.57,33.57,0,0,1-1.31,13.44c-3,.66-13.27,2.48-21.66-3.43-9-6.36-11.62-18.63-11.75-19.31-.58-2.95-.61-5.57-2.36-9.42A27.43,27.43,0,0,0,122.72,314.68Z" transform="translate(-117.8 -294.61)"/><path class="cls-1" d="M225.6,297a59.55,59.55,0,0,0-6.35,11.45c-3.45,8.26-2.54,11.36-5.3,17.6a35,35,0,0,1-13.63,15.73c-10.2,6-20.91,4.19-24.28,3.46-1.77-5.18-3.87-14.31-.41-23.7C181.61,305.25,201.9,294.5,225.6,297Z" transform="translate(-117.8 -294.61)"/><path class="cls-1" d="M174.63,364.89c1.36-2.75,5.31-9.68,13.23-12.79,10.88-4.28,24.87.39,33.8,12.14A106.72,106.72,0,0,0,210,368.5c-10,4.33-12.33,7.17-16.9,7.55C188.85,376.4,182.71,374.62,174.63,364.89Z" transform="translate(-117.8 -294.61)"/><path class="cls-1" d="M140.11,326A147.16,147.16,0,0,1,153.4,339.3a148.47,148.47,0,0,1,15.75,21.49" transform="translate(-117.8 -294.61)"/><path class="cls-1" d="M167.13,399.84a93,93,0,0,1,.69-33.34,90.53,90.53,0,0,1,4.08-14,92.68,92.68,0,0,1,34.5-43.4" transform="translate(-117.8 -294.61)"/><path class="cls-1" d="M205.91,360.79a114.24,114.24,0,0,0-38.22,6.4" transform="translate(-117.8 -294.61)"/></g></svg>